<svg xmlns="http://www.w3.org/2000/svg" width="200" height="200" viewBox="0 0 200 200">
  <rect width="200" height="200" fill="white"/>
  <!-- Top-left finder -->
  <rect x="10" y="10" width="56" height="56" fill="black"/>
  <rect x="18" y="18" width="40" height="40" fill="white"/>
  <rect x="26" y="26" width="24" height="24" fill="black"/>
  <!-- Top-right finder -->
  <rect x="134" y="10" width="56" height="56" fill="black"/>
  <rect x="142" y="18" width="40" height="40" fill="white"/>
  <rect x="150" y="26" width="24" height="24" fill="black"/>
  <!-- Bottom-left finder -->
  <rect x="10" y="134" width="56" height="56" fill="black"/>
  <rect x="18" y="142" width="40" height="40" fill="white"/>
  <rect x="26" y="150" width="24" height="24" fill="black"/>
  <!-- Data modules (pattern) -->
  <rect x="78" y="10" width="8" height="8" fill="black"/>
  <rect x="94" y="10" width="8" height="8" fill="black"/>
  <rect x="110" y="10" width="8" height="8" fill="black"/>
  <rect x="78" y="26" width="8" height="8" fill="black"/>
  <rect x="110" y="26" width="8" height="8" fill="black"/>
  <rect x="86" y="34" width="8" height="8" fill="black"/>
  <rect x="102" y="18" width="8" height="8" fill="black"/>
  <rect x="78" y="42" width="8" height="8" fill="black"/>
  <rect x="94" y="42" width="8" height="8" fill="black"/>
  <rect x="110" y="42" width="8" height="8" fill="black"/>
  <rect x="86" y="50" width="8" height="8" fill="black"/>
  <rect x="102" y="58" width="8" height="8" fill="black"/>
  <!-- Left column data -->
  <rect x="10" y="78" width="8" height="8" fill="black"/>
  <rect x="26" y="78" width="8" height="8" fill="black"/>
  <rect x="42" y="78" width="8" height="8" fill="black"/>
  <rect x="58" y="78" width="8" height="8" fill="black"/>
  <rect x="10" y="94" width="8" height="8" fill="black"/>
  <rect x="34" y="94" width="8" height="8" fill="black"/>
  <rect x="50" y="94" width="8" height="8" fill="black"/>
  <rect x="18" y="110" width="8" height="8" fill="black"/>
  <rect x="42" y="110" width="8" height="8" fill="black"/>
  <rect x="58" y="110" width="8" height="8" fill="black"/>
  <rect x="10" y="118" width="8" height="8" fill="black"/>
  <rect x="26" y="118" width="8" height="8" fill="black"/>
  <!-- Center data -->
  <rect x="78" y="78" width="8" height="8" fill="black"/>
  <rect x="94" y="78" width="8" height="8" fill="black"/>
  <rect x="110" y="78" width="8" height="8" fill="black"/>
  <rect x="126" y="78" width="8" height="8" fill="black"/>
  <rect x="86" y="86" width="8" height="8" fill="black"/>
  <rect x="118" y="86" width="8" height="8" fill="black"/>
  <rect x="78" y="94" width="8" height="8" fill="black"/>
  <rect x="102" y="94" width="8" height="8" fill="black"/>
  <rect x="126" y="94" width="8" height="8" fill="black"/>
  <rect x="86" y="102" width="8" height="8" fill="black"/>
  <rect x="110" y="102" width="8" height="8" fill="black"/>
  <rect x="78" y="110" width="8" height="8" fill="black"/>
  <rect x="94" y="110" width="8" height="8" fill="black"/>
  <rect x="118" y="110" width="8" height="8" fill="black"/>
  <rect x="102" y="118" width="8" height="8" fill="black"/>
  <rect x="126" y="118" width="8" height="8" fill="black"/>
  <!-- Right + Bottom data -->
  <rect x="142" y="78" width="8" height="8" fill="black"/>
  <rect x="158" y="78" width="8" height="8" fill="black"/>
  <rect x="174" y="78" width="8" height="8" fill="black"/>
  <rect x="150" y="94" width="8" height="8" fill="black"/>
  <rect x="166" y="86" width="8" height="8" fill="black"/>
  <rect x="142" y="102" width="8" height="8" fill="black"/>
  <rect x="174" y="102" width="8" height="8" fill="black"/>
  <rect x="158" y="110" width="8" height="8" fill="black"/>
  <rect x="142" y="118" width="8" height="8" fill="black"/>
  <rect x="166" y="118" width="8" height="8" fill="black"/>
  <rect x="78" y="134" width="8" height="8" fill="black"/>
  <rect x="94" y="134" width="8" height="8" fill="black"/>
  <rect x="110" y="142" width="8" height="8" fill="black"/>
  <rect x="126" y="134" width="8" height="8" fill="black"/>
  <rect x="86" y="150" width="8" height="8" fill="black"/>
  <rect x="102" y="158" width="8" height="8" fill="black"/>
  <rect x="118" y="142" width="8" height="8" fill="black"/>
  <rect x="78" y="166" width="8" height="8" fill="black"/>
  <rect x="110" y="166" width="8" height="8" fill="black"/>
  <rect x="126" y="158" width="8" height="8" fill="black"/>
  <rect x="142" y="134" width="8" height="8" fill="black"/>
  <rect x="166" y="142" width="8" height="8" fill="black"/>
  <rect x="150" y="158" width="8" height="8" fill="black"/>
  <rect x="174" y="150" width="8" height="8" fill="black"/>
  <rect x="142" y="166" width="8" height="8" fill="black"/>
  <rect x="158" y="174" width="8" height="8" fill="black"/>
  <rect x="174" y="166" width="8" height="8" fill="black"/>
  <rect x="94" y="174" width="8" height="8" fill="black"/>
  <rect x="118" y="174" width="8" height="8" fill="black"/>
  <!-- Timing patterns -->
  <rect x="74" y="18" width="4" height="4" fill="black"/>
  <rect x="74" y="26" width="4" height="4" fill="black"/>
  <rect x="74" y="34" width="4" height="4" fill="black"/>
  <rect x="74" y="42" width="4" height="4" fill="black"/>
  <rect x="74" y="50" width="4" height="4" fill="black"/>
  <rect x="18" y="74" width="4" height="4" fill="black"/>
  <rect x="26" y="74" width="4" height="4" fill="black"/>
  <rect x="34" y="74" width="4" height="4" fill="black"/>
  <rect x="42" y="74" width="4" height="4" fill="black"/>
  <rect x="50" y="74" width="4" height="4" fill="black"/>
</svg>
